<svg width="24" height="24" viewBox="0 0 24 24" fill="red" xmlns="http://www.w3.org/2000/svg">
<path d="M22.4992 11.1753H1.49922C1.04922 11.1753 0.636719 11.5503 0.636719 12.0378C0.636719 12.4878 1.01172 12.9003 1.49922 12.9003H22.4992C22.9492 12.9003 23.3617 12.5253 23.3617 12.0378C23.3617 11.5503 22.9492 11.1753 22.4992 11.1753Z" fill="#34d399"/>
<path d="M22.4992 17.5503H1.49922C1.04922 17.5503 0.636719 17.9253 0.636719 18.4128C0.636719 18.9003 1.01172 19.2753 1.49922 19.2753H22.4992C22.9492 19.2753 23.3617 18.9003 23.3617 18.4128C23.3617 17.9253 22.9492 17.5503 22.4992 17.5503Z" fill="#34d399"/>
<path d="M1.49922 6.4501H22.4992C22.9492 6.4501 23.3617 6.0751 23.3617 5.5876C23.3617 5.1001 22.9867 4.7251 22.4992 4.7251H1.49922C1.04922 4.7251 0.636719 5.1001 0.636719 5.5876C0.636719 6.0751 1.04922 6.4501 1.49922 6.4501Z" fill="#34d399"/>
</svg>
